<svg xmlns="http://www.w3.org/2000/svg" viewBox="0 0 32 32" fill="none">
  <rect width="32" height="32" rx="8" fill="#171717"/>
  <g stroke="#fff" stroke-width="1.5" stroke-linecap="round" stroke-linejoin="round">
    <!-- car body -->
    <path d="M6 21h20v-3c0-.9-.7-1.7-1.5-1.9-.5-.1-3-1.1-3-1.1s-1.3-2-2.2-3.1C18.4 10.9 17.2 10 16 10h-4.7c-1.3 0-2.5.6-3.3 1.6L6.5 13.3c-.5.7-.5 1.2-.5 2V21z"/>
    <!-- wheels -->
    <circle cx="10.5" cy="21" r="2.5" fill="#171717"/>
    <circle cx="21.5" cy="21" r="2.5" fill="#171717"/>
    <circle cx="10.5" cy="21" r="1" fill="#fff"/>
    <circle cx="21.5" cy="21" r="1" fill="#fff"/>
    <!-- speedometer needle on body -->
    <path d="M18 14.5l1.5-2" stroke="#60a5fa" stroke-width="1.5"/>
    <path d="M15.5 13.5a3 3 0 0 1 4.5 0" stroke="#60a5fa" stroke-width="1" fill="none"/>
  </g>
</svg>
